<svg width="31" height="31" viewBox="0 0 31 31" fill="none" xmlns="http://www.w3.org/2000/svg">
<path d="M16.2688 27.0443L25.9486 17.2731C27.2043 15.9914 27.9054 14.2671 27.9005 12.4728C27.8956 10.6784 27.185 8.95804 25.9222 7.68325C25.3027 7.05135 24.5638 6.54895 23.7484 6.20527C22.933 5.86158 22.0573 5.68348 21.1724 5.68131C20.2876 5.67915 19.4111 5.85297 18.594 6.19266C17.7769 6.53236 17.0355 7.03114 16.413 7.66L15.4892 8.59465L14.5514 7.64915C13.9328 7.01809 13.1949 6.51632 12.3806 6.17302C11.5663 5.82972 10.6919 5.65174 9.80817 5.64944C8.92447 5.64713 8.04913 5.82054 7.23306 6.15958C6.41698 6.49862 5.67646 6.99653 5.05455 7.62435C2.43815 10.2671 2.45055 14.5622 5.07935 17.2173L14.8087 27.0443C15.2117 27.452 15.8658 27.452 16.2688 27.0443ZM17.515 8.74965C17.9935 8.26664 18.5634 7.88368 19.1913 7.62308C19.8193 7.36249 20.4929 7.22947 21.1728 7.23178C21.8527 7.23409 22.5253 7.37168 23.1515 7.63653C23.7777 7.90138 24.3449 8.2882 24.8202 8.77445C25.7955 9.75923 26.3446 11.0879 26.3493 12.4739C26.3539 13.8599 25.8136 15.1922 24.845 16.1834V16.1866L15.5388 25.5795L6.17985 16.1261C4.1447 14.0708 4.14315 10.7476 6.1566 8.714C6.63449 8.23188 7.20352 7.84964 7.83056 7.58955C8.4576 7.32945 9.13011 7.1967 9.80894 7.199C10.4878 7.20131 11.1594 7.33864 11.7846 7.60299C12.4099 7.86735 12.9763 8.25344 13.4509 8.7388L14.9389 10.2423C15.011 10.3152 15.0968 10.373 15.1914 10.4125C15.286 10.452 15.3874 10.4723 15.4899 10.4723C15.5924 10.4723 15.6939 10.452 15.7885 10.4125C15.8831 10.373 15.9689 10.3152 16.041 10.2423L17.515 8.74965Z" fill="currentColor"/>
</svg>
